<svg width="24" height="24" viewBox="0 0 24 24" fill="none" xmlns="http://www.w3.org/2000/svg">
<path d="M3.22719 5.99539C4.73769 5.99539 5.96219 4.77089 5.96219 3.26039C5.96219 1.74989 4.73769 0.525391 3.22719 0.525391C1.71669 0.525391 0.492188 1.74989 0.492188 3.26039C0.492188 4.77089 1.71669 5.99539 3.22719 5.99539Z" fill="#0A66C2"/>
<path d="M8.54469 8.06836V23.2421H13.2559V15.7384C13.2559 13.7584 13.6284 11.8409 16.0834 11.8409C18.5047 11.8409 18.5347 14.1046 18.5347 15.8634V23.2434H23.2484V14.9221C23.2484 10.8346 22.3684 7.69336 17.5909 7.69336C15.2972 7.69336 13.7597 8.95211 13.1309 10.1434H13.0672V8.06836H8.54469ZM0.867188 8.06836H5.58594V23.2421H0.867188V8.06836Z" fill="#0A66C2"/>
</svg>
